<svg xmlns="http://www.w3.org/2000/svg" viewBox="0 0 800 360" role="img" aria-labelledby="t5">
<title id="t5">A globe with a dotted radio path skipping from Mia's house in America to Bruce in Australia, where it is already tomorrow morning</title>
<rect x="0" y="0" width="800" height="360" fill="#fdfcf7"/>
<g>
  <circle cx="400" cy="195" r="120" fill="#3f6db5"/>
  <ellipse cx="400" cy="195" rx="55" ry="120" fill="none" stroke="#2a4f8f" stroke-width="2"/>
  <ellipse cx="400" cy="195" rx="95" ry="120" fill="none" stroke="#2a4f8f" stroke-width="2"/>
  <line x1="280" y1="195" x2="520" y2="195" stroke="#2a4f8f" stroke-width="2"/>
  <ellipse cx="355" cy="150" rx="30" ry="22" fill="#58b368"/>
  <ellipse cx="370" cy="235" rx="18" ry="26" fill="#58b368"/>
  <ellipse cx="455" cy="140" rx="28" ry="18" fill="#58b368"/>
  <ellipse cx="470" cy="255" rx="20" ry="14" fill="#58b368"/>
</g>
<path d="M352 148 Q420 30 474 250" fill="none" stroke="#e8734a" stroke-width="4" stroke-dasharray="2 10" stroke-linecap="round"/>
<path d="M474 250 l-13 -8 l3 13 Z" fill="#e8734a"/>
<g>
  <circle cx="352" cy="148" r="7" fill="#d95555" stroke="#fdfcf7" stroke-width="2"/>
  <circle cx="470" cy="252" r="7" fill="#e8a54b" stroke="#fdfcf7" stroke-width="2"/>
</g>
<g>
  <rect x="120" y="90" width="120" height="46" rx="14" fill="#1a3a6b"/>
  <path d="M150 136 l10 14 l10 -14 Z" fill="#1a3a6b"/>
  <text x="180" y="119" text-anchor="middle" font-family="Georgia, serif" font-size="18" fill="#fdfcf7">CQ, CQ!</text>
</g>
<g>
  <rect x="560" y="255" width="140" height="46" rx="14" fill="#e8a54b"/>
  <path d="M620 255 l10 -14 l10 14 Z" fill="#e8a54b"/>
  <text x="630" y="284" text-anchor="middle" font-family="Georgia, serif" font-size="17" fill="#1a3a6b">G'day, mate!</text>
</g>
<g>
  <circle cx="120" cy="290" r="22" fill="#d8cfae"/>
  <circle cx="128" cy="284" r="18" fill="#fdfcf7"/>
  <text x="120" y="335" text-anchor="middle" font-family="Georgia, serif" font-size="13" fill="#666">bedtime for Mia</text>
</g>
<g>
  <circle cx="680" cy="70" r="20" fill="#ffd25e"/>
  <g stroke="#e8a54b" stroke-width="3.5" stroke-linecap="round">
    <line x1="680" y1="38" x2="680" y2="46"/><line x1="680" y1="94" x2="680" y2="102"/>
    <line x1="648" y1="70" x2="656" y2="70"/><line x1="704" y1="70" x2="712" y2="70"/>
    <line x1="658" y1="48" x2="664" y2="54"/><line x1="696" y1="86" x2="702" y2="92"/>
    <line x1="702" y1="48" x2="696" y2="54"/><line x1="664" y1="86" x2="658" y2="92"/>
  </g>
  <text x="680" y="124" text-anchor="middle" font-family="Georgia, serif" font-size="13" fill="#666">tomorrow morning in Australia</text>
</g>
</svg>
